<svg width="21" height="19" viewBox="0 0 21 19" fill="none" xmlns="http://www.w3.org/2000/svg">
<path d="M10.1976 8.96924C8.80449 8.96924 7.66464 8.5609 6.7781 7.74424C5.89155 6.92757 5.44828 5.87757 5.44828 4.59424C5.44828 3.3109 5.89155 2.2609 6.7781 1.44424C7.66464 0.627572 8.80449 0.219238 10.1976 0.219238C11.5908 0.219238 12.7306 0.627572 13.6172 1.44424C14.5037 2.2609 14.947 3.3109 14.947 4.59424C14.947 5.87757 14.5037 6.92757 13.6172 7.74424C12.7306 8.5609 11.5908 8.96924 10.1976 8.96924ZM0.0656738 18.3317V15.5901C0.0656738 14.8512 0.266202 14.2192 0.667259 13.6942C1.06832 13.1692 1.58547 12.7706 2.21871 12.4984C3.63297 11.9151 4.98917 11.4776 6.28733 11.1859C7.58549 10.8942 8.88892 10.7484 10.1976 10.7484C11.5063 10.7484 12.8045 10.8991 14.0921 11.2005C15.3797 11.5019 16.7306 11.9345 18.1449 12.4984C18.7992 12.7706 19.3269 13.1692 19.728 13.6942C20.1291 14.2192 20.3296 14.8512 20.3296 15.5901V18.3317H0.0656738ZM1.96542 16.5817H18.4298V15.5901C18.4298 15.279 18.3296 14.9824 18.1291 14.7005C17.9285 14.4185 17.6805 14.2095 17.385 14.0734C16.0341 13.4706 14.7992 13.0574 13.6805 12.8338C12.5618 12.6102 11.4008 12.4984 10.1976 12.4984C8.99446 12.4984 7.82295 12.6102 6.68311 12.8338C5.54326 13.0574 4.30843 13.4706 2.97861 14.0734C2.6831 14.2095 2.44035 14.4185 2.25038 14.7005C2.0604 14.9824 1.96542 15.279 1.96542 15.5901V16.5817ZM10.1976 7.21924C11.0209 7.21924 11.7016 6.97132 12.2399 6.47549C12.7781 5.97965 13.0472 5.35257 13.0472 4.59424C13.0472 3.8359 12.7781 3.20882 12.2399 2.71299C11.7016 2.21715 11.0209 1.96924 10.1976 1.96924C9.37441 1.96924 8.69367 2.21715 8.15541 2.71299C7.61715 3.20882 7.34802 3.8359 7.34802 4.59424C7.34802 5.35257 7.61715 5.97965 8.15541 6.47549C8.69367 6.97132 9.37441 7.21924 10.1976 7.21924Z" fill="white"/>
</svg>
