<svg width="24" height="22" viewBox="0 0 24 22" fill="none" xmlns="http://www.w3.org/2000/svg">
<path d="M10.5098 0.5C10.6652 0.587941 10.8373 0.657909 10.9718 0.767032C11.1906 0.94484 11.2547 1.19262 11.2547 1.45451C11.2547 4.60498 11.2568 7.75545 11.2533 10.9053C11.2533 11.5189 10.8659 11.8669 10.1962 11.8669C7.42144 11.8688 4.64735 11.8688 1.87257 11.8669C1.17853 11.8669 0.806423 11.5177 0.806423 10.8738C0.805727 7.78626 0.813392 4.69742 0.799455 1.60857C0.797365 1.06423 0.991084 0.684227 1.56318 0.5C4.54492 0.5 7.52736 0.5 10.5098 0.5ZM9.33981 10.1157V2.2646H2.72759V10.1157H9.33981Z" fill="white"/>
<path d="M23.5962 20.7964C23.3948 21.3215 22.9851 21.5032 22.3935 21.4999C19.6863 21.4858 16.9791 21.4935 14.2719 21.4935C13.5186 21.4935 13.1479 21.1559 13.1479 20.4658C13.1479 17.3642 13.1535 14.2618 13.1423 11.1601C13.1403 10.5292 13.5409 10.1132 14.2831 10.1183C16.9902 10.1363 19.6974 10.1331 22.4046 10.119C22.999 10.1158 23.4074 10.3 23.5962 10.8328V20.7964V20.7964ZM21.6771 19.7309V11.8823H15.0677V19.7309H21.6771Z" fill="white"/>
<path d="M23.5962 7.67586C23.3949 8.20029 22.9858 8.38259 22.3942 8.37938C19.6814 8.36526 16.9694 8.37296 14.2566 8.37296C13.5215 8.37296 13.148 8.03083 13.148 7.35298C13.1466 5.44845 13.1584 3.54327 13.141 1.63874C13.1354 1.09248 13.3166 0.697065 13.8922 0.5H22.8388C23.2158 0.617469 23.4687 0.849196 23.5955 1.19711V7.67586H23.5962ZM15.0629 2.26139V6.60708H21.6751V2.26139H15.0629Z" fill="white"/>
<path d="M6.03193 13.6212C7.41166 13.6212 8.79068 13.6212 10.1704 13.6212C10.8735 13.6212 11.254 13.9711 11.2547 14.6239C11.2561 16.5778 11.2561 18.5318 11.2547 20.4858C11.2547 21.1488 10.8756 21.4935 10.1537 21.4935C7.4019 21.4935 4.65081 21.4935 1.89903 21.4935C1.1799 21.4935 0.807093 21.1476 0.806396 20.4806C0.806396 18.5267 0.806396 16.5727 0.806396 14.6187C0.806396 13.9691 1.18547 13.6219 1.89345 13.6212C3.27318 13.6206 4.65221 13.6212 6.03193 13.6212V13.6212ZM2.72338 15.3833V19.7283H9.33561V15.3833H2.72338V15.3833Z" fill="white"/>
</svg>
