<svg width="16" height="14" viewBox="0 0 16 14" fill="none" xmlns="http://www.w3.org/2000/svg">
<g clip-path="url(#clip0_1050_14561)">
<path d="M-0.000218876 12.0601C0.655111 10.6501 1.54924 9.37815 2.33924 8.04674C3.78378 5.61176 5.25808 3.1944 6.71868 0.768422C7.00837 0.286907 7.42059 0.00543602 7.9898 -4.46351e-05C8.49285 -0.00474234 8.9082 0.204306 9.17871 0.626708C9.59602 1.27851 9.98632 1.94755 10.386 2.61031C12.1708 5.5683 13.9543 8.52747 15.7398 11.4851C16.0718 12.0347 16.1004 12.5859 15.7391 13.1265C15.4776 13.518 15.0951 13.7196 14.6237 13.7474C14.5822 13.7498 14.5404 13.7501 14.4989 13.7501C10.1668 13.7501 5.83433 13.7501 1.50226 13.7501C0.855547 13.7501 0.389691 13.4608 0.116049 12.8725C0.0694638 12.7718 0.0377543 12.6642 -0.000610352 12.5597C-0.000610352 12.3929 -0.000610352 12.2265 -0.000610352 12.0598L-0.000218876 12.0601ZM8.00037 12.7127C10.1406 12.7127 12.2808 12.7127 14.421 12.7123C14.4934 12.7123 14.5682 12.7131 14.6382 12.6979C14.8896 12.6442 15.018 12.3937 14.9181 12.1564C14.8943 12.0993 14.8606 12.0461 14.8285 11.9928C13.1491 9.20746 11.4692 6.4225 9.78941 3.63755C9.32003 2.8589 8.85104 2.07987 8.38088 1.30161C8.1644 0.943803 7.8336 0.946152 7.61398 1.30474C7.6085 1.31375 7.60224 1.32197 7.59676 1.33097C5.52311 4.77009 3.44946 8.20959 1.37582 11.6491C1.28186 11.8049 1.18125 11.9572 1.09709 12.1177C0.954199 12.3909 1.11627 12.6791 1.42358 12.71C1.47525 12.7151 1.52771 12.7127 1.57978 12.7127C3.71997 12.7127 5.86017 12.7127 8.00037 12.7127Z" fill="white"/>
<path d="M8.62025 6.99684C8.60498 7.47365 8.58032 8.11842 8.56583 8.76396C8.56114 8.97966 8.46836 9.11198 8.27027 9.18988C8.08588 9.2627 7.90306 9.25722 7.72064 9.20085C7.5339 9.14369 7.43877 9.0145 7.43564 8.81837C7.41685 7.53238 7.31546 6.24951 7.30137 4.96351C7.29745 4.62215 7.41176 4.43424 7.69637 4.33206C8.0209 4.2154 8.40924 4.30075 8.58502 4.52741C8.68328 4.65425 8.69698 4.80144 8.69541 4.95529C8.68836 5.58009 8.66644 6.2041 8.62025 6.99645V6.99684Z" fill="white"/>
<path d="M7.27356 10.6571C7.27356 10.2437 7.60553 9.90981 8.01423 9.91255C8.40727 9.91529 8.74668 10.2598 8.74707 10.6564C8.74747 11.0498 8.40375 11.3998 8.01501 11.4025C7.60827 11.4052 7.27395 11.0686 7.27356 10.6571V10.6571Z" fill="white"/>
</g>
<defs>
<clipPath id="clip0_1050_14561">
<rect width="16" height="13.7506" fill="white"/>
</clipPath>
</defs>
</svg>
