<svg width="31" height="28" viewBox="0 0 31 28" fill="none" xmlns="http://www.w3.org/2000/svg">
<path d="M20.9082 3.5C20.9577 3.6578 21.0479 3.81478 21.0496 3.97299C21.0621 5.07799 21.0599 6.1834 21.0523 7.28841C21.0514 7.4458 21.1023 7.55552 21.2241 7.66195C21.4221 7.83536 21.6046 8.02398 21.8062 8.21835C22.209 7.84646 22.5945 7.49922 22.9683 7.14129C23.1133 7.0024 23.2721 6.94199 23.48 6.9461C23.902 6.95432 24.3244 6.94651 24.7464 6.94939C25.1006 6.95144 25.2264 7.06815 25.2264 7.39648C25.2269 12.9227 25.2269 18.449 25.2264 23.9748C25.2264 24.3015 25.0993 24.4166 24.7447 24.4178C24.3075 24.419 23.8699 24.4314 23.434 24.4104C23.2873 24.4034 23.1137 24.3401 23.0062 24.2489C22.6092 23.9115 22.2345 23.5516 21.8513 23.2006C21.8464 23.1961 21.8379 23.1949 21.783 23.1719C21.5836 23.3634 21.3463 23.5512 21.1625 23.7759C20.732 24.3032 20.1918 24.4803 19.474 24.4318C18.4235 24.3611 18.787 24.5468 18.0211 23.8585C17.7731 23.6354 17.5353 23.4024 17.2734 23.155C16.9259 23.4764 16.5838 23.7677 16.2755 24.087C16.0346 24.3364 15.7719 24.4552 15.4034 24.4244C15.0657 24.396 14.7222 24.4092 14.3823 24.4215C14.1637 24.4297 14.0035 24.3599 13.8545 24.2165C13.4874 23.8622 13.1078 23.5191 12.7219 23.1612C12.3262 23.5257 11.9452 23.8684 11.5763 24.2214C11.426 24.3652 11.2627 24.4277 11.0455 24.4219C10.6235 24.4104 10.2014 24.4199 9.77899 24.4182C9.43907 24.417 9.30702 24.2978 9.30702 23.9867C9.30568 22.8472 9.3039 21.7081 9.3097 20.5686C9.31059 20.4268 9.26598 20.327 9.15535 20.2304C8.95193 20.0533 8.76278 19.8622 8.55401 19.6641C8.161 20.0257 7.78405 20.3611 7.4236 20.7108C7.25631 20.8731 7.07341 20.9392 6.83341 20.9323C6.43371 20.9203 6.03356 20.9302 5.63386 20.9286C5.26404 20.9269 5.13289 20.8094 5.13289 20.4769C5.13289 14.9507 5.13155 9.42445 5.14003 3.89861C5.14003 3.76546 5.25066 3.63273 5.30999 3.5C5.94702 3.5 6.58404 3.5 7.22107 3.5C7.64709 3.91052 8.07312 4.32105 8.46836 4.70198C8.95996 4.27174 9.40159 3.88587 9.84278 3.5C10.4945 3.5 11.1463 3.5 11.798 3.5C12.2388 3.89244 12.68 4.28447 13.1546 4.70692C13.5713 4.30954 13.9955 3.90477 14.4197 3.5C15.0568 3.5 15.6938 3.5 16.3308 3.5C16.764 3.90272 17.1971 4.30543 17.6165 4.69541C18.0786 4.28242 18.5154 3.89121 18.9525 3.5C19.6043 3.5 20.256 3.5 20.9078 3.5H20.9082ZM20.285 4.15626C20.0183 4.15626 19.7671 4.14393 19.5182 4.16202C19.4062 4.17023 19.2733 4.21338 19.1939 4.28324C18.7812 4.64569 18.3842 5.02292 17.9796 5.39277C17.7374 5.61426 17.5549 5.61344 17.3122 5.39153C16.9076 5.02128 16.5097 4.64486 16.0984 4.2816C16.023 4.21503 15.899 4.16859 15.7942 4.16243C15.514 4.14599 15.2312 4.1464 14.9506 4.16243C14.8453 4.16818 14.7204 4.21256 14.6455 4.27872C14.2493 4.6276 13.8666 4.98882 13.4789 5.34551C13.1698 5.62987 13.0212 5.63111 12.7179 5.35208C12.5243 5.17374 12.332 4.99375 12.1366 4.81705C11.8944 4.59761 11.6869 4.29639 11.3952 4.18667C11.1026 4.07654 10.7243 4.15092 10.3843 4.16243C10.2871 4.16571 10.1702 4.21133 10.1002 4.27379C9.68933 4.63788 9.29096 5.01347 8.88635 5.38372C8.63208 5.61672 8.45676 5.61672 8.20472 5.38537C7.80055 5.01471 7.39862 4.6424 6.99445 4.27215C6.94851 4.22982 6.89274 4.16695 6.83966 4.1653C6.52561 4.15503 6.21066 4.16037 5.89973 4.16037V20.2292C6.16828 20.2292 6.42657 20.2402 6.68263 20.2238C6.78836 20.2168 6.91416 20.1741 6.9891 20.1079C7.40576 19.7397 7.80858 19.358 8.21899 18.984C8.44605 18.7773 8.64144 18.7798 8.87074 18.9873C9.0871 19.1833 9.29899 19.3839 9.51535 19.5799C9.75267 19.7948 9.95565 20.0911 10.2416 20.1963C10.536 20.3048 10.9125 20.2345 11.252 20.2238C11.3501 20.2209 11.4679 20.1753 11.5388 20.1124C11.9546 19.7434 12.3583 19.3625 12.7683 18.9877C12.9976 18.7781 13.1916 18.7769 13.42 18.9824C13.6373 19.178 13.8487 19.3785 14.0651 19.5749C14.302 19.7899 14.5045 20.087 14.79 20.193C15.084 20.3023 15.46 20.2329 15.7995 20.2234C15.8972 20.2205 16.0154 20.1757 16.0859 20.1133C16.4865 19.759 16.8746 19.3933 17.2681 19.0317C17.5607 18.7625 17.7276 18.7609 18.0144 19.0243C18.4074 19.3855 18.7991 19.7484 19.1934 20.1083C19.2443 20.1548 19.3081 20.2185 19.3683 20.2209C19.6694 20.2324 19.9714 20.2263 20.2846 20.2263V4.15626H20.285ZM24.452 23.7205V7.64839C24.1772 7.64839 23.9185 7.63811 23.6615 7.65373C23.563 7.65948 23.4461 7.70222 23.3756 7.76509C22.9545 8.13904 22.5458 8.52491 22.1296 8.90379C21.9213 9.09323 21.7161 9.09529 21.5118 8.90667C21.3771 8.78216 21.2562 8.64531 21.1295 8.51381L21.0563 8.54957C21.0563 8.62764 21.0563 8.70613 21.0563 8.78421C21.0563 10.483 21.0563 12.1818 21.0563 13.8806C21.0563 16.0705 21.0563 18.2608 21.0563 20.4506C21.0563 20.818 20.9372 20.9269 20.5406 20.9286C20.2667 20.9298 19.9893 20.9031 19.7194 20.9343C19.2086 20.9931 18.8258 20.8382 18.5011 20.4704C18.2477 20.1835 17.9381 19.939 17.6441 19.667C17.2364 20.0455 16.8586 20.4116 16.4584 20.756C16.3513 20.8484 16.1783 20.9117 16.0306 20.9212C15.6693 20.9446 15.3035 20.9088 14.943 20.9347C14.5915 20.9598 14.3394 20.848 14.1079 20.6117C13.7921 20.2892 13.4455 19.9925 13.0953 19.6695C12.8058 19.9382 12.5064 20.1761 12.2602 20.4539C11.9265 20.8304 11.5344 20.996 11.0053 20.9356C10.702 20.901 10.3901 20.9294 10.0783 20.9294V23.7217C10.358 23.7217 10.6239 23.7307 10.8884 23.7168C10.9799 23.7118 11.0887 23.6695 11.1543 23.6111C11.5745 23.2364 11.9836 22.8505 12.3998 22.472C12.6242 22.2682 12.8098 22.2694 13.0359 22.472C13.2536 22.6672 13.4655 22.8678 13.681 23.0646C13.9174 23.2808 14.1173 23.5811 14.4023 23.688C14.6954 23.7977 15.0724 23.7279 15.4119 23.7168C15.5162 23.7135 15.642 23.6679 15.7165 23.6021C16.118 23.2487 16.5061 22.8821 16.8991 22.5205C17.1922 22.2505 17.3448 22.2518 17.6441 22.5259C17.8435 22.7087 18.0421 22.8928 18.2415 23.0757C18.4725 23.2873 18.667 23.5816 18.9458 23.6863C19.2322 23.7944 19.6016 23.7106 19.9335 23.7254C20.0896 23.7324 20.194 23.681 20.2993 23.5812C20.6812 23.2191 21.0715 22.8649 21.46 22.5086C21.7339 22.2575 21.9021 22.2563 22.176 22.5074C22.5806 22.8776 22.9812 23.2516 23.3885 23.6194C23.4416 23.6674 23.5215 23.7151 23.5911 23.718C23.8712 23.7291 24.1522 23.7225 24.4529 23.7225L24.452 23.7205Z" fill="white" stroke="white" stroke-width="0.5"/>
<path d="M7.41101 8.68797V8.01855H18.7646V8.68797H7.41101Z" fill="white" stroke="white" stroke-width="0.2"/>
<path d="M7.41101 14.6238V13.9544H18.7651V14.6238H7.41101Z" fill="white" stroke="white" stroke-width="0.2"/>
<path d="M14.6055 13.2312H13.8529V12.2064C13.7931 12.1981 13.7579 12.1891 13.7227 12.1887C13.2725 12.1879 12.822 12.1879 12.3473 12.1879V13.2251H11.5778C11.5778 12.96 11.6041 12.6941 11.5729 12.434C11.4614 11.4926 11.676 10.628 12.2412 9.8365C12.3179 9.72924 12.3634 9.5998 12.4531 9.50405C12.6092 9.33803 13.5723 9.34379 13.7414 9.49994C13.7722 9.5283 13.7981 9.56364 13.8177 9.59939C14.0662 10.0555 14.3142 10.5121 14.5595 10.9699C14.585 11.0171 14.6033 11.0734 14.6037 11.1256C14.6064 11.8201 14.6055 12.515 14.6055 13.2304V13.2312ZM13.8806 11.4794C13.84 11.3286 13.8257 11.1938 13.7682 11.0771C13.6317 10.7989 13.4724 10.5297 13.3274 10.2548C13.277 10.1595 13.232 10.0526 13.0919 10.0979C13.0089 10.1246 12.9139 10.1809 12.8737 10.2487C12.7073 10.5285 12.5521 10.8145 12.4089 11.1051C12.3549 11.2144 12.3447 11.3418 12.3099 11.4794H13.8806Z" fill="white"/>
<path d="M15.0076 10.1205V9.39894C15.2761 9.39894 15.5375 9.37346 15.7882 9.41003C15.9082 9.4277 16.0447 9.54359 16.109 9.64879C16.2562 9.89001 16.3633 10.1514 16.5105 10.4538C16.643 10.1805 16.7656 9.95247 16.8642 9.71618C16.9637 9.47784 17.1346 9.37593 17.4098 9.39401C17.6012 9.40634 17.7939 9.39647 18.0053 9.39647V10.0688C17.9995 10.0725 17.9866 10.0885 17.9772 10.0868C17.5869 10.0145 17.4129 10.2027 17.3036 10.5204C17.2086 10.7978 16.9695 11.0599 16.9682 11.3299C16.9668 11.5917 17.2064 11.8485 17.305 12.1185C17.4214 12.4357 17.5815 12.6572 18.0107 12.5253V13.2383C17.7444 13.2383 17.483 13.2638 17.2323 13.2272C17.1123 13.2095 16.9757 13.0937 16.9115 12.9889C16.7643 12.7476 16.6572 12.4859 16.51 12.1834C16.3775 12.4567 16.2553 12.6848 16.1563 12.9211C16.0568 13.159 15.8859 13.2617 15.6102 13.2436C15.4189 13.2313 15.2262 13.2412 15.0147 13.2412V12.5689C15.0205 12.5648 15.0339 12.5488 15.0433 12.5508C15.4336 12.6235 15.6071 12.4341 15.7164 12.1169C15.8119 11.8395 16.0505 11.5769 16.0519 11.3073C16.0532 11.0456 15.8186 10.7875 15.7142 10.5191C15.5942 10.2114 15.4497 9.96562 15.0076 10.121V10.1205Z" fill="white"/>
<path d="M11.1899 9.41309V10.0895H10.0689V13.2278H9.31005V10.0985H8.17786V9.41309H11.1904H11.1899Z" fill="white"/>
</svg>
