<svg width="171" height="107" viewBox="0 0 171 107" fill="none" xmlns="http://www.w3.org/2000/svg">
<g clip-path="url(#clip0_1050_14370)">
<path d="M99.1706 37.6098C96.5967 37.9958 95.2815 39.7658 95.2815 42.8802C95.2815 45.9947 97.0342 48.1086 99.721 48.1086C100.974 48.1086 102.109 47.7226 104.499 46.6328V49.1669C101.632 50.3906 99.9439 50.7688 97.6325 50.7688C95.1319 50.7688 93.3708 50.1517 91.9343 48.7888C91.2126 48.1058 90.6452 47.2953 90.2657 46.4049C89.8862 45.5146 89.7021 44.5626 89.7245 43.605C89.7245 39.1198 93.2946 36.0841 98.5046 36.0841C101.967 36.0841 104.347 37.5573 104.347 39.7185C104.347 41.1103 103.24 42.0662 101.595 42.0662C100.733 42.0577 99.8919 41.8198 99.1706 41.3808V37.6098Z" fill="white"/>
<path d="M86.4648 43.7786C88.7734 41.0686 89.589 39.9788 89.589 38.6474C89.5892 38.328 89.5205 38.0118 89.387 37.7175C89.2535 37.4232 89.058 37.1568 88.812 36.934C88.566 36.7112 88.2745 36.5366 87.9547 36.4204C87.6349 36.3043 87.2934 36.2489 86.9502 36.2577C86.547 36.2568 86.1475 36.3298 85.7746 36.4726C85.4017 36.6155 85.0627 36.8253 84.7771 37.0902V42.6048L80.9952 47.2949V36.5912H77.3968L71.4193 45.8138V36.5912H69.3534L63.9261 37.8228V39.1148L66.8867 39.3932V50.7035H70.7137L76.4457 41.9404V50.7087H80.6368L86.4648 43.7786Z" fill="white"/>
<path d="M52.5016 48.9623C52.908 48.9781 53.0858 48.9781 53.3483 48.9781C56.4302 48.9781 58.084 47.1924 58.084 43.7654C58.084 40.8637 56.7322 39.3196 54.2373 39.3196C53.658 39.3373 53.0804 39.3864 52.5072 39.4666L52.5016 48.9623ZM52.5016 55.1414L54.9824 55.6666V56.9796H45.2484V55.6666L47.4667 55.1414V39.3143H45V37.9567L50.955 36.276H52.5016V38.1641C55.29 36.62 56.2467 36.3469 57.6776 36.3469C60.9797 36.3469 63.4181 39.183 63.4181 43.1063C63.4181 47.6441 60.1669 50.6981 55.0388 50.6981C54.1901 50.6935 53.3422 50.647 52.4988 50.5589L52.5016 55.1414Z" fill="white"/>
<g style="mix-blend-mode:multiply">
<path d="M125.003 17.7949H95.9026V24.7249H125.003V17.7949Z" fill="#F0659D"/>
</g>
<path d="M113.686 3.17355H95.9026V24.7253H113.686V3.17355Z" fill="#FAB383"/>
<path d="M110.762 0.46521H95.9026V24.7244H110.762V0.46521Z" fill="#F7942F"/>
<path opacity="0.5" d="M121.221 7.39322H95.9026V24.725H121.221V7.39322Z" fill="#FDB924"/>
<path d="M105.196 14.3237H95.9026V24.728H105.196V14.3237Z" fill="#E25E17"/>
<path d="M95.8997 24.7253H81.001V28.1916H95.8997V24.7253Z" fill="#C41D01"/>
</g>
<path d="M1.08398 76.1151H2.46094L6.80859 83.0877V76.1151H7.91602V84.7225H6.60938L2.19727 77.7557V84.7225H1.08398V76.1151ZM10.4238 83.0526C10.4238 83.3573 10.5352 83.5975 10.7578 83.7733C10.9805 83.9491 11.2441 84.037 11.5488 84.037C11.9199 84.037 12.2793 83.951 12.627 83.7791C13.2129 83.494 13.5059 83.0272 13.5059 82.3788V81.5291C13.377 81.6112 13.2109 81.6795 13.0078 81.7342C12.8047 81.7889 12.6055 81.828 12.4102 81.8514L11.7715 81.9334C11.3887 81.9842 11.1016 82.0643 10.9102 82.1737C10.5859 82.3573 10.4238 82.6502 10.4238 83.0526ZM12.9785 80.9198C13.2207 80.8885 13.3828 80.787 13.4648 80.6151C13.5117 80.5213 13.5352 80.3866 13.5352 80.2108C13.5352 79.8514 13.4062 79.5916 13.1484 79.4315C12.8945 79.2674 12.5293 79.1854 12.0527 79.1854C11.502 79.1854 11.1113 79.3338 10.8809 79.6307C10.752 79.7948 10.668 80.0389 10.6289 80.3631H9.64453C9.66406 79.5897 9.91406 79.0526 10.3945 78.7518C10.8789 78.4471 11.4395 78.2948 12.0762 78.2948C12.8145 78.2948 13.4141 78.4354 13.875 78.7166C14.332 78.9979 14.5605 79.4354 14.5605 80.0291V83.6444C14.5605 83.7538 14.582 83.8416 14.625 83.9081C14.6719 83.9745 14.7676 84.0077 14.9121 84.0077C14.959 84.0077 15.0117 84.0057 15.0703 84.0018C15.1289 83.994 15.1914 83.9842 15.2578 83.9725V84.7518C15.0938 84.7987 14.9688 84.828 14.8828 84.8397C14.7969 84.8514 14.6797 84.8573 14.5312 84.8573C14.168 84.8573 13.9043 84.7284 13.7402 84.4706C13.6543 84.3338 13.5938 84.1405 13.5586 83.8905C13.3438 84.1717 13.0352 84.4159 12.6328 84.6229C12.2305 84.8299 11.7871 84.9334 11.3027 84.9334C10.7207 84.9334 10.2441 84.7577 9.87305 84.4061C9.50586 84.0506 9.32227 83.6073 9.32227 83.076C9.32227 82.494 9.50391 82.0428 9.86719 81.7225C10.2305 81.4022 10.707 81.2049 11.2969 81.1307L12.9785 80.9198ZM16.8105 78.4471L18.4863 83.5565L20.2383 78.4471H21.3926L19.0254 84.7225H17.9004L15.5859 78.4471H16.8105ZM22.2949 78.4764H23.3672V84.7225H22.2949V78.4764ZM22.2949 76.1151H23.3672V77.3104H22.2949V76.1151ZM27.1816 78.3358C27.6738 78.3358 28.1035 78.4569 28.4707 78.6991C28.6699 78.8358 28.873 79.035 29.0801 79.2967V78.5057H30.0527V84.2127C30.0527 85.0096 29.9355 85.6385 29.7012 86.0995C29.2637 86.951 28.4375 87.3768 27.2227 87.3768C26.5469 87.3768 25.9785 87.2245 25.5176 86.9198C25.0566 86.619 24.7988 86.1463 24.7441 85.5018H25.8164C25.8672 85.7831 25.9688 85.9998 26.1211 86.1522C26.3594 86.3866 26.7344 86.5038 27.2461 86.5038C28.0547 86.5038 28.584 86.2186 28.834 85.6483C28.9824 85.3123 29.0508 84.7127 29.0391 83.8495C28.8281 84.1698 28.5742 84.4081 28.2773 84.5643C27.9805 84.7206 27.5879 84.7987 27.0996 84.7987C26.4199 84.7987 25.8242 84.5584 25.3125 84.078C24.8047 83.5936 24.5508 82.7948 24.5508 81.6815C24.5508 80.6307 24.8066 79.8104 25.3184 79.2206C25.834 78.6307 26.4551 78.3358 27.1816 78.3358ZM29.0801 81.5584C29.0801 80.7811 28.9199 80.2049 28.5996 79.8299C28.2793 79.4549 27.8711 79.2674 27.375 79.2674C26.6328 79.2674 26.125 79.6151 25.8516 80.3104C25.707 80.6815 25.6348 81.1678 25.6348 81.7694C25.6348 82.4764 25.7773 83.0155 26.0625 83.3866C26.3516 83.7538 26.7383 83.9373 27.2227 83.9373C27.9805 83.9373 28.5137 83.5956 28.8223 82.912C28.9941 82.5252 29.0801 82.0741 29.0801 81.5584ZM32.4551 83.0526C32.4551 83.3573 32.5664 83.5975 32.7891 83.7733C33.0117 83.9491 33.2754 84.037 33.5801 84.037C33.9512 84.037 34.3105 83.951 34.6582 83.7791C35.2441 83.494 35.5371 83.0272 35.5371 82.3788V81.5291C35.4082 81.6112 35.2422 81.6795 35.0391 81.7342C34.8359 81.7889 34.6367 81.828 34.4414 81.8514L33.8027 81.9334C33.4199 81.9842 33.1328 82.0643 32.9414 82.1737C32.6172 82.3573 32.4551 82.6502 32.4551 83.0526ZM35.0098 80.9198C35.252 80.8885 35.4141 80.787 35.4961 80.6151C35.543 80.5213 35.5664 80.3866 35.5664 80.2108C35.5664 79.8514 35.4375 79.5916 35.1797 79.4315C34.9258 79.2674 34.5605 79.1854 34.084 79.1854C33.5332 79.1854 33.1426 79.3338 32.9121 79.6307C32.7832 79.7948 32.6992 80.0389 32.6602 80.3631H31.6758C31.6953 79.5897 31.9453 79.0526 32.4258 78.7518C32.9102 78.4471 33.4707 78.2948 34.1074 78.2948C34.8457 78.2948 35.4453 78.4354 35.9062 78.7166C36.3633 78.9979 36.5918 79.4354 36.5918 80.0291V83.6444C36.5918 83.7538 36.6133 83.8416 36.6562 83.9081C36.7031 83.9745 36.7988 84.0077 36.9434 84.0077C36.9902 84.0077 37.043 84.0057 37.1016 84.0018C37.1602 83.994 37.2227 83.9842 37.2891 83.9725V84.7518C37.125 84.7987 37 84.828 36.9141 84.8397C36.8281 84.8514 36.7109 84.8573 36.5625 84.8573C36.1992 84.8573 35.9355 84.7284 35.7715 84.4706C35.6855 84.3338 35.625 84.1405 35.5898 83.8905C35.375 84.1717 35.0664 84.4159 34.6641 84.6229C34.2617 84.8299 33.8184 84.9334 33.334 84.9334C32.752 84.9334 32.2754 84.7577 31.9043 84.4061C31.5371 84.0506 31.3535 83.6073 31.3535 83.076C31.3535 82.494 31.5352 82.0428 31.8984 81.7225C32.2617 81.4022 32.7383 81.2049 33.3281 81.1307L35.0098 80.9198ZM38.5371 76.6952H39.6035V78.4471H40.6055V79.3084H39.6035V83.4041C39.6035 83.6229 39.6777 83.7694 39.8262 83.8436C39.9082 83.8866 40.0449 83.9081 40.2363 83.9081C40.2871 83.9081 40.3418 83.9081 40.4004 83.9081C40.459 83.9041 40.5273 83.8983 40.6055 83.8905V84.7225C40.4844 84.7577 40.3574 84.7831 40.2246 84.7987C40.0957 84.8143 39.9551 84.8221 39.8027 84.8221C39.3105 84.8221 38.9766 84.6971 38.8008 84.4471C38.625 84.1932 38.5371 83.8651 38.5371 83.4627V79.3084H37.6875V78.4471H38.5371V76.6952ZM44.2793 78.3065C44.7246 78.3065 45.1562 78.412 45.5742 78.6229C45.9922 78.8299 46.3105 79.0995 46.5293 79.4315C46.7402 79.7479 46.8809 80.117 46.9512 80.5389C47.0137 80.828 47.0449 81.2889 47.0449 81.9217H42.4453C42.4648 82.5584 42.6152 83.0702 42.8965 83.4569C43.1777 83.8397 43.6133 84.0311 44.2031 84.0311C44.7539 84.0311 45.1934 83.8495 45.5215 83.4862C45.709 83.2752 45.8418 83.0311 45.9199 82.7538H46.957C46.9297 82.9842 46.8379 83.242 46.6816 83.5272C46.5293 83.8084 46.3574 84.0389 46.166 84.2186C45.8457 84.5311 45.4492 84.742 44.9766 84.8514C44.7227 84.9139 44.4355 84.9452 44.1152 84.9452C43.334 84.9452 42.6719 84.662 42.1289 84.0956C41.5859 83.5252 41.3145 82.7284 41.3145 81.7049C41.3145 80.6971 41.5879 79.8788 42.1348 79.2498C42.6816 78.6209 43.3965 78.3065 44.2793 78.3065ZM45.9609 81.0838C45.918 80.6268 45.8184 80.2616 45.6621 79.9881C45.373 79.4803 44.8906 79.2264 44.2148 79.2264C43.7305 79.2264 43.3242 79.4022 42.9961 79.7538C42.668 80.1014 42.4941 80.5448 42.4746 81.0838H45.9609ZM55.1309 83.7264C55.5254 83.7264 55.8496 83.6854 56.1035 83.6034C56.5566 83.451 56.9277 83.1581 57.2168 82.7245C57.4473 82.3768 57.6133 81.9315 57.7148 81.3885C57.7734 81.0643 57.8027 80.7635 57.8027 80.4862C57.8027 79.4198 57.5898 78.5916 57.1641 78.0018C56.7422 77.412 56.0605 77.117 55.1191 77.117H53.0508V83.7264H55.1309ZM51.8789 76.1151H55.3652C56.5488 76.1151 57.4668 76.535 58.1191 77.3748C58.7012 78.1327 58.9922 79.1034 58.9922 80.287C58.9922 81.201 58.8203 82.0272 58.4766 82.7655C57.8711 84.0702 56.8301 84.7225 55.3535 84.7225H51.8789V76.1151ZM60.3574 78.4764H61.4297V84.7225H60.3574V78.4764ZM60.3574 76.1151H61.4297V77.3104H60.3574V76.1151ZM63.0586 78.4471H64.0605V79.5311C64.1426 79.3202 64.3438 79.0643 64.6641 78.7635C64.9844 78.4588 65.3535 78.3065 65.7715 78.3065C65.791 78.3065 65.8242 78.3084 65.8711 78.3123C65.918 78.3163 65.998 78.3241 66.1113 78.3358V79.4491C66.0488 79.4373 65.9902 79.4295 65.9355 79.4256C65.8848 79.4217 65.8281 79.4198 65.7656 79.4198C65.2344 79.4198 64.8262 79.5916 64.541 79.9354C64.2559 80.2752 64.1133 80.6678 64.1133 81.1131V84.7225H63.0586V78.4471ZM69.6387 78.3065C70.084 78.3065 70.5156 78.412 70.9336 78.6229C71.3516 78.8299 71.6699 79.0995 71.8887 79.4315C72.0996 79.7479 72.2402 80.117 72.3105 80.5389C72.373 80.828 72.4043 81.2889 72.4043 81.9217H67.8047C67.8242 82.5584 67.9746 83.0702 68.2559 83.4569C68.5371 83.8397 68.9727 84.0311 69.5625 84.0311C70.1133 84.0311 70.5527 83.8495 70.8809 83.4862C71.0684 83.2752 71.2012 83.0311 71.2793 82.7538H72.3164C72.2891 82.9842 72.1973 83.242 72.041 83.5272C71.8887 83.8084 71.7168 84.0389 71.5254 84.2186C71.2051 84.5311 70.8086 84.742 70.3359 84.8514C70.082 84.9139 69.7949 84.9452 69.4746 84.9452C68.6934 84.9452 68.0312 84.662 67.4883 84.0956C66.9453 83.5252 66.6738 82.7284 66.6738 81.7049C66.6738 80.6971 66.9473 79.8788 67.4941 79.2498C68.041 78.6209 68.7559 78.3065 69.6387 78.3065ZM71.3203 81.0838C71.2773 80.6268 71.1777 80.2616 71.0215 79.9881C70.7324 79.4803 70.25 79.2264 69.5742 79.2264C69.0898 79.2264 68.6836 79.4022 68.3555 79.7538C68.0273 80.1014 67.8535 80.5448 67.834 81.0838H71.3203ZM76.125 78.2655C76.832 78.2655 77.4062 78.4373 77.8477 78.7811C78.293 79.1248 78.5605 79.7166 78.6504 80.5565H77.625C77.5625 80.1698 77.4199 79.8495 77.1973 79.5956C76.9746 79.3377 76.6172 79.2088 76.125 79.2088C75.4531 79.2088 74.9727 79.537 74.6836 80.1932C74.4961 80.619 74.4023 81.1444 74.4023 81.7694C74.4023 82.3983 74.5352 82.9276 74.8008 83.3573C75.0664 83.787 75.4844 84.0018 76.0547 84.0018C76.4922 84.0018 76.8379 83.869 77.0918 83.6034C77.3496 83.3338 77.5273 82.9666 77.625 82.5018H78.6504C78.5332 83.3338 78.2402 83.9432 77.7715 84.3299C77.3027 84.7127 76.7031 84.9041 75.9727 84.9041C75.1523 84.9041 74.498 84.6053 74.0098 84.0077C73.5215 83.4061 73.2773 82.6561 73.2773 81.7577C73.2773 80.6561 73.5449 79.7987 74.0801 79.1854C74.6152 78.5721 75.2969 78.2655 76.125 78.2655ZM79.916 76.6952H80.9824V78.4471H81.9844V79.3084H80.9824V83.4041C80.9824 83.6229 81.0566 83.7694 81.2051 83.8436C81.2871 83.8866 81.4238 83.9081 81.6152 83.9081C81.666 83.9081 81.7207 83.9081 81.7793 83.9081C81.8379 83.9041 81.9062 83.8983 81.9844 83.8905V84.7225C81.8633 84.7577 81.7363 84.7831 81.6035 84.7987C81.4746 84.8143 81.334 84.8221 81.1816 84.8221C80.6895 84.8221 80.3555 84.6971 80.1797 84.4471C80.0039 84.1932 79.916 83.8651 79.916 83.4627V79.3084H79.0664V78.4471H79.916V76.6952ZM92.5781 76.1151V77.1405H89.6777V84.7225H88.4941V77.1405H85.5938V76.1151H92.5781ZM92.9824 83.0526C92.9824 83.3573 93.0938 83.5975 93.3164 83.7733C93.5391 83.9491 93.8027 84.037 94.1074 84.037C94.4785 84.037 94.8379 83.951 95.1855 83.7791C95.7715 83.494 96.0645 83.0272 96.0645 82.3788V81.5291C95.9355 81.6112 95.7695 81.6795 95.5664 81.7342C95.3633 81.7889 95.1641 81.828 94.9688 81.8514L94.3301 81.9334C93.9473 81.9842 93.6602 82.0643 93.4688 82.1737C93.1445 82.3573 92.9824 82.6502 92.9824 83.0526ZM95.5371 80.9198C95.7793 80.8885 95.9414 80.787 96.0234 80.6151C96.0703 80.5213 96.0938 80.3866 96.0938 80.2108C96.0938 79.8514 95.9648 79.5916 95.707 79.4315C95.4531 79.2674 95.0879 79.1854 94.6113 79.1854C94.0605 79.1854 93.6699 79.3338 93.4395 79.6307C93.3105 79.7948 93.2266 80.0389 93.1875 80.3631H92.2031C92.2227 79.5897 92.4727 79.0526 92.9531 78.7518C93.4375 78.4471 93.998 78.2948 94.6348 78.2948C95.373 78.2948 95.9727 78.4354 96.4336 78.7166C96.8906 78.9979 97.1191 79.4354 97.1191 80.0291V83.6444C97.1191 83.7538 97.1406 83.8416 97.1836 83.9081C97.2305 83.9745 97.3262 84.0077 97.4707 84.0077C97.5176 84.0077 97.5703 84.0057 97.6289 84.0018C97.6875 83.994 97.75 83.9842 97.8164 83.9725V84.7518C97.6523 84.7987 97.5273 84.828 97.4414 84.8397C97.3555 84.8514 97.2383 84.8573 97.0898 84.8573C96.7266 84.8573 96.4629 84.7284 96.2988 84.4706C96.2129 84.3338 96.1523 84.1405 96.1172 83.8905C95.9023 84.1717 95.5938 84.4159 95.1914 84.6229C94.7891 84.8299 94.3457 84.9334 93.8613 84.9334C93.2793 84.9334 92.8027 84.7577 92.4316 84.4061C92.0645 84.0506 91.8809 83.6073 91.8809 83.076C91.8809 82.494 92.0625 82.0428 92.4258 81.7225C92.7891 81.4022 93.2656 81.2049 93.8555 81.1307L95.5371 80.9198ZM98.2559 78.4471H99.6211L101.062 80.6561L102.521 78.4471L103.805 78.4764L101.689 81.5057L103.898 84.7225H102.551L100.992 82.367L99.4805 84.7225H98.1445L100.354 81.5057L98.2559 78.4471ZM111.961 75.8807C113.051 75.8807 113.896 76.1678 114.498 76.742C115.1 77.3163 115.434 77.9686 115.5 78.6991H114.363C114.234 78.1444 113.977 77.7049 113.59 77.3807C113.207 77.0565 112.668 76.8944 111.973 76.8944C111.125 76.8944 110.439 77.1932 109.916 77.7909C109.396 78.3846 109.137 79.2967 109.137 80.5272C109.137 81.535 109.371 82.3534 109.84 82.9823C110.312 83.6073 111.016 83.9198 111.949 83.9198C112.809 83.9198 113.463 83.5897 113.912 82.9295C114.15 82.5819 114.328 82.1248 114.445 81.5584H115.582C115.48 82.4647 115.145 83.2245 114.574 83.8377C113.891 84.576 112.969 84.9452 111.809 84.9452C110.809 84.9452 109.969 84.6424 109.289 84.037C108.395 83.2362 107.947 81.9998 107.947 80.328C107.947 79.0584 108.283 78.0174 108.955 77.2049C109.682 76.3221 110.684 75.8807 111.961 75.8807ZM119.355 84.0428C120.055 84.0428 120.533 83.7791 120.791 83.2518C121.053 82.7206 121.184 82.1307 121.184 81.4823C121.184 80.8963 121.09 80.4198 120.902 80.0526C120.605 79.4745 120.094 79.1854 119.367 79.1854C118.723 79.1854 118.254 79.4315 117.961 79.9237C117.668 80.4159 117.521 81.0096 117.521 81.7049C117.521 82.3729 117.668 82.9295 117.961 83.3748C118.254 83.8202 118.719 84.0428 119.355 84.0428ZM119.396 78.2655C120.205 78.2655 120.889 78.535 121.447 79.0741C122.006 79.6131 122.285 80.4061 122.285 81.453C122.285 82.4647 122.039 83.3006 121.547 83.9608C121.055 84.6209 120.291 84.951 119.256 84.951C118.393 84.951 117.707 84.66 117.199 84.078C116.691 83.492 116.438 82.7069 116.438 81.7225C116.438 80.6678 116.705 79.828 117.24 79.203C117.775 78.578 118.494 78.2655 119.396 78.2655ZM123.545 78.4471H124.588V79.3377C124.838 79.0291 125.064 78.8045 125.268 78.6639C125.615 78.4256 126.01 78.3065 126.451 78.3065C126.951 78.3065 127.354 78.4295 127.658 78.6756C127.83 78.8163 127.986 79.0233 128.127 79.2967C128.361 78.9608 128.637 78.7127 128.953 78.5526C129.27 78.3885 129.625 78.3065 130.02 78.3065C130.863 78.3065 131.438 78.6112 131.742 79.2206C131.906 79.5487 131.988 79.9901 131.988 80.5448V84.7225H130.893V80.3631C130.893 79.9452 130.787 79.6581 130.576 79.5018C130.369 79.3456 130.115 79.2674 129.814 79.2674C129.4 79.2674 129.043 79.4061 128.742 79.6834C128.445 79.9608 128.297 80.4237 128.297 81.0721V84.7225H127.225V80.6268C127.225 80.201 127.174 79.8905 127.072 79.6952C126.912 79.4022 126.613 79.2557 126.176 79.2557C125.777 79.2557 125.414 79.41 125.086 79.7186C124.762 80.0272 124.6 80.5858 124.6 81.3944V84.7225H123.545V78.4471ZM136.189 84.0135C136.682 84.0135 137.09 83.8084 137.414 83.3983C137.742 82.9842 137.906 82.367 137.906 81.5467C137.906 81.0467 137.834 80.617 137.689 80.2577C137.416 79.5663 136.916 79.2206 136.189 79.2206C135.459 79.2206 134.959 79.5858 134.689 80.3163C134.545 80.7069 134.473 81.203 134.473 81.8045C134.473 82.2889 134.545 82.701 134.689 83.0409C134.963 83.6893 135.463 84.0135 136.189 84.0135ZM133.459 78.4764H134.484V79.3084C134.695 79.0233 134.926 78.8026 135.176 78.6463C135.531 78.412 135.949 78.2948 136.43 78.2948C137.141 78.2948 137.744 78.5682 138.24 79.1151C138.736 79.6581 138.984 80.4354 138.984 81.4471C138.984 82.8143 138.627 83.7909 137.912 84.3768C137.459 84.7479 136.932 84.9334 136.33 84.9334C135.857 84.9334 135.461 84.8299 135.141 84.6229C134.953 84.5057 134.744 84.3045 134.514 84.0194V87.2245H133.459V78.4764ZM140.25 76.1151H141.305V84.7225H140.25V76.1151ZM142.893 78.4764H143.965V84.7225H142.893V78.4764ZM142.893 76.1151H143.965V77.3104H142.893V76.1151ZM146.373 83.0526C146.373 83.3573 146.484 83.5975 146.707 83.7733C146.93 83.9491 147.193 84.037 147.498 84.037C147.869 84.037 148.229 83.951 148.576 83.7791C149.162 83.494 149.455 83.0272 149.455 82.3788V81.5291C149.326 81.6112 149.16 81.6795 148.957 81.7342C148.754 81.7889 148.555 81.828 148.359 81.8514L147.721 81.9334C147.338 81.9842 147.051 82.0643 146.859 82.1737C146.535 82.3573 146.373 82.6502 146.373 83.0526ZM148.928 80.9198C149.17 80.8885 149.332 80.787 149.414 80.6151C149.461 80.5213 149.484 80.3866 149.484 80.2108C149.484 79.8514 149.355 79.5916 149.098 79.4315C148.844 79.2674 148.479 79.1854 148.002 79.1854C147.451 79.1854 147.061 79.3338 146.83 79.6307C146.701 79.7948 146.617 80.0389 146.578 80.3631H145.594C145.613 79.5897 145.863 79.0526 146.344 78.7518C146.828 78.4471 147.389 78.2948 148.025 78.2948C148.764 78.2948 149.363 78.4354 149.824 78.7166C150.281 78.9979 150.51 79.4354 150.51 80.0291V83.6444C150.51 83.7538 150.531 83.8416 150.574 83.9081C150.621 83.9745 150.717 84.0077 150.861 84.0077C150.908 84.0077 150.961 84.0057 151.02 84.0018C151.078 83.994 151.141 83.9842 151.207 83.9725V84.7518C151.043 84.7987 150.918 84.828 150.832 84.8397C150.746 84.8514 150.629 84.8573 150.48 84.8573C150.117 84.8573 149.854 84.7284 149.689 84.4706C149.604 84.3338 149.543 84.1405 149.508 83.8905C149.293 84.1717 148.984 84.4159 148.582 84.6229C148.18 84.8299 147.736 84.9334 147.252 84.9334C146.67 84.9334 146.193 84.7577 145.822 84.4061C145.455 84.0506 145.271 83.6073 145.271 83.076C145.271 82.494 145.453 82.0428 145.816 81.7225C146.18 81.4022 146.656 81.2049 147.246 81.1307L148.928 80.9198ZM152.244 78.4471H153.246V79.3377C153.543 78.9706 153.857 78.7069 154.189 78.5467C154.521 78.3866 154.891 78.3065 155.297 78.3065C156.188 78.3065 156.789 78.617 157.102 79.2381C157.273 79.578 157.359 80.0643 157.359 80.6971V84.7225H156.287V80.7674C156.287 80.3846 156.23 80.076 156.117 79.8416C155.93 79.451 155.59 79.2557 155.098 79.2557C154.848 79.2557 154.643 79.2811 154.482 79.3319C154.193 79.4178 153.939 79.5897 153.721 79.8475C153.545 80.0545 153.43 80.2694 153.375 80.492C153.324 80.7108 153.299 81.0252 153.299 81.4354V84.7225H152.244V78.4471ZM161.344 78.2655C162.051 78.2655 162.625 78.4373 163.066 78.7811C163.512 79.1248 163.779 79.7166 163.869 80.5565H162.844C162.781 80.1698 162.639 79.8495 162.416 79.5956C162.193 79.3377 161.836 79.2088 161.344 79.2088C160.672 79.2088 160.191 79.537 159.902 80.1932C159.715 80.619 159.621 81.1444 159.621 81.7694C159.621 82.3983 159.754 82.9276 160.02 83.3573C160.285 83.787 160.703 84.0018 161.273 84.0018C161.711 84.0018 162.057 83.869 162.311 83.6034C162.568 83.3338 162.746 82.9666 162.844 82.5018H163.869C163.752 83.3338 163.459 83.9432 162.99 84.3299C162.521 84.7127 161.922 84.9041 161.191 84.9041C160.371 84.9041 159.717 84.6053 159.229 84.0077C158.74 83.4061 158.496 82.6561 158.496 81.7577C158.496 80.6561 158.764 79.7987 159.299 79.1854C159.834 78.5721 160.516 78.2655 161.344 78.2655ZM167.537 78.3065C167.982 78.3065 168.414 78.412 168.832 78.6229C169.25 78.8299 169.568 79.0995 169.787 79.4315C169.998 79.7479 170.139 80.117 170.209 80.5389C170.271 80.828 170.303 81.2889 170.303 81.9217H165.703C165.723 82.5584 165.873 83.0702 166.154 83.4569C166.436 83.8397 166.871 84.0311 167.461 84.0311C168.012 84.0311 168.451 83.8495 168.779 83.4862C168.967 83.2752 169.1 83.0311 169.178 82.7538H170.215C170.188 82.9842 170.096 83.242 169.939 83.5272C169.787 83.8084 169.615 84.0389 169.424 84.2186C169.104 84.5311 168.707 84.742 168.234 84.8514C167.98 84.9139 167.693 84.9452 167.373 84.9452C166.592 84.9452 165.93 84.662 165.387 84.0956C164.844 83.5252 164.572 82.7284 164.572 81.7049C164.572 80.6971 164.846 79.8788 165.393 79.2498C165.939 78.6209 166.654 78.3065 167.537 78.3065ZM169.219 81.0838C169.176 80.6268 169.076 80.2616 168.92 79.9881C168.631 79.4803 168.148 79.2264 167.473 79.2264C166.988 79.2264 166.582 79.4022 166.254 79.7538C165.926 80.1014 165.752 80.5448 165.732 81.0838H169.219Z" fill="white"/>
<path d="M43.6484 99.6268C43.6172 99.3885 43.5371 99.1737 43.4082 98.9823C43.2207 98.7245 42.9297 98.5956 42.5352 98.5956C41.9727 98.5956 41.5879 98.8748 41.3809 99.4334C41.2715 99.7303 41.2168 100.125 41.2168 100.617C41.2168 101.086 41.2715 101.463 41.3809 101.748C41.5801 102.279 41.9551 102.545 42.5059 102.545C42.8965 102.545 43.1738 102.439 43.3379 102.228C43.502 102.017 43.6016 101.744 43.6367 101.408H45.3418C45.3027 101.916 45.1191 102.396 44.791 102.849C44.2676 103.58 43.4922 103.945 42.4648 103.945C41.4375 103.945 40.6816 103.64 40.1973 103.031C39.7129 102.422 39.4707 101.631 39.4707 100.658C39.4707 99.5604 39.7383 98.7069 40.2734 98.0975C40.8086 97.4881 41.5469 97.1834 42.4883 97.1834C43.2891 97.1834 43.9434 97.3631 44.4512 97.7225C44.9629 98.0819 45.2656 98.7166 45.3594 99.6268H43.6484ZM49.3789 102.545C49.8672 102.545 50.2422 102.371 50.5039 102.023C50.7656 101.676 50.8965 101.181 50.8965 100.541C50.8965 99.9002 50.7656 99.4081 50.5039 99.0643C50.2422 98.7166 49.8672 98.5428 49.3789 98.5428C48.8906 98.5428 48.5137 98.7166 48.248 99.0643C47.9863 99.4081 47.8555 99.9002 47.8555 100.541C47.8555 101.181 47.9863 101.676 48.248 102.023C48.5137 102.371 48.8906 102.545 49.3789 102.545ZM52.6484 100.541C52.6484 101.478 52.3789 102.281 51.8398 102.949C51.3008 103.613 50.4824 103.945 49.3848 103.945C48.2871 103.945 47.4688 103.613 46.9297 102.949C46.3906 102.281 46.1211 101.478 46.1211 100.541C46.1211 99.619 46.3906 98.8202 46.9297 98.1444C47.4688 97.4686 48.2871 97.1307 49.3848 97.1307C50.4824 97.1307 51.3008 97.4686 51.8398 98.1444C52.3789 98.8202 52.6484 99.619 52.6484 100.541ZM57.3887 97.1834C58.0488 97.1834 58.5879 97.3573 59.0059 97.7049C59.4277 98.0487 59.6387 98.6209 59.6387 99.4217V103.723H57.9277V99.8377C57.9277 99.5018 57.8828 99.244 57.793 99.0643C57.6289 98.7362 57.3164 98.5721 56.8555 98.5721C56.2891 98.5721 55.9004 98.8123 55.6895 99.2928C55.5801 99.5467 55.5254 99.8709 55.5254 100.265V103.723H53.8613V97.3475H55.4727V98.2791C55.6875 97.951 55.8906 97.7147 56.082 97.5702C56.4258 97.3123 56.8613 97.1834 57.3887 97.1834ZM65.252 95.0331H66.8867V96.5565H65.252V95.0331ZM65.252 97.3651H66.916V103.723H65.252V97.3651ZM63.582 94.9979C63.6836 94.9979 63.7871 95.0018 63.8926 95.0096C63.998 95.0174 64.1074 95.0252 64.2207 95.0331V96.3924C64.1426 96.3885 64.0664 96.3866 63.9922 96.3866C63.918 96.3827 63.8281 96.3807 63.7227 96.3807C63.4609 96.3807 63.3008 96.453 63.2422 96.5975C63.1836 96.742 63.1582 96.9686 63.166 97.2772V97.3944H64.2617V98.5721H63.166V103.723H61.502V98.5721H60.5703V97.3944H61.4844V96.9842C61.4844 96.3045 61.6348 95.7987 61.9355 95.4666C62.2051 95.1541 62.7539 94.9979 63.582 94.9979ZM70.877 97.1834C71.2637 97.1834 71.6074 97.2694 71.9082 97.4413C72.209 97.6092 72.4531 97.8436 72.6406 98.1444V95.0975H74.334V103.723H72.7109V102.838C72.4727 103.217 72.2012 103.492 71.8965 103.664C71.5918 103.836 71.2129 103.922 70.7598 103.922C70.0137 103.922 69.3848 103.621 68.873 103.019C68.3652 102.414 68.1113 101.639 68.1113 100.693C68.1113 99.6034 68.3613 98.7459 68.8613 98.1209C69.3652 97.4959 70.0371 97.1834 70.877 97.1834ZM71.2402 102.515C71.7129 102.515 72.0723 102.34 72.3184 101.988C72.5645 101.637 72.6875 101.181 72.6875 100.623C72.6875 99.8416 72.4902 99.2831 72.0957 98.9471C71.8535 98.744 71.5723 98.6424 71.252 98.6424C70.7637 98.6424 70.4043 98.828 70.1738 99.1991C69.9473 99.5663 69.834 100.023 69.834 100.57C69.834 101.16 69.9492 101.633 70.1797 101.988C70.4141 102.34 70.7676 102.515 71.2402 102.515ZM78.377 98.5428C77.9902 98.5428 77.6895 98.6639 77.4746 98.9061C77.2637 99.1483 77.1309 99.4764 77.0762 99.8905H79.6719C79.6445 99.4491 79.5098 99.1151 79.2676 98.8885C79.0293 98.6581 78.7324 98.5428 78.377 98.5428ZM78.377 97.1659C78.9082 97.1659 79.3867 97.2655 79.8125 97.4647C80.2383 97.6639 80.5898 97.9784 80.8672 98.4081C81.1172 98.787 81.2793 99.2264 81.3535 99.7264C81.3965 100.019 81.4141 100.441 81.4062 100.992H77.0352C77.0586 101.633 77.2598 102.082 77.6387 102.34C77.8691 102.5 78.1465 102.58 78.4707 102.58C78.8145 102.58 79.0938 102.482 79.3086 102.287C79.4258 102.181 79.5293 102.035 79.6191 101.848H81.3242C81.2812 102.226 81.084 102.611 80.7324 103.002C80.1855 103.623 79.4199 103.933 78.4355 103.933C77.623 103.933 76.9062 103.672 76.2852 103.148C75.6641 102.625 75.3535 101.773 75.3535 100.594C75.3535 99.4881 75.6328 98.6405 76.1914 98.0506C76.7539 97.4608 77.4824 97.1659 78.377 97.1659ZM86.0762 97.1834C86.7363 97.1834 87.2754 97.3573 87.6934 97.7049C88.1152 98.0487 88.3262 98.6209 88.3262 99.4217V103.723H86.6152V99.8377C86.6152 99.5018 86.5703 99.244 86.4805 99.0643C86.3164 98.7362 86.0039 98.5721 85.543 98.5721C84.9766 98.5721 84.5879 98.8123 84.377 99.2928C84.2676 99.5467 84.2129 99.8709 84.2129 100.265V103.723H82.5488V97.3475H84.1602V98.2791C84.375 97.951 84.5781 97.7147 84.7695 97.5702C85.1133 97.3123 85.5488 97.1834 86.0762 97.1834ZM89.2168 98.5838V97.3944H90.1074V95.6131H91.7598V97.3944H92.7969V98.5838H91.7598V101.959C91.7598 102.221 91.793 102.385 91.8594 102.451C91.9258 102.514 92.1289 102.545 92.4688 102.545C92.5195 102.545 92.5723 102.545 92.627 102.545C92.6855 102.541 92.7422 102.537 92.7969 102.533V103.781L92.0059 103.81C91.2168 103.838 90.6777 103.701 90.3887 103.4C90.2012 103.209 90.1074 102.914 90.1074 102.515V98.5838H89.2168ZM95.5859 96.5741H93.8926V95.0331H95.5859V96.5741ZM93.8926 97.3358H95.5859V103.723H93.8926V97.3358ZM100.73 100.617C100.625 100.683 100.518 100.738 100.408 100.781C100.303 100.82 100.156 100.857 99.9688 100.892L99.5938 100.963C99.2422 101.025 98.9902 101.101 98.8379 101.191C98.5801 101.344 98.4512 101.58 98.4512 101.9C98.4512 102.185 98.5293 102.392 98.6855 102.521C98.8457 102.646 99.0391 102.709 99.2656 102.709C99.625 102.709 99.9551 102.603 100.256 102.392C100.561 102.181 100.719 101.797 100.73 101.238V100.617ZM99.7168 99.8377C100.025 99.7987 100.246 99.7498 100.379 99.6913C100.617 99.5897 100.736 99.4315 100.736 99.2166C100.736 98.9549 100.645 98.7752 100.461 98.6776C100.281 98.576 100.016 98.5252 99.6641 98.5252C99.2695 98.5252 98.9902 98.6229 98.8262 98.8182C98.709 98.9627 98.6309 99.1581 98.5918 99.4041H96.9805C97.0156 98.8456 97.1719 98.3866 97.4492 98.0272C97.8906 97.4647 98.6484 97.1834 99.7227 97.1834C100.422 97.1834 101.043 97.3221 101.586 97.5995C102.129 97.8768 102.4 98.4002 102.4 99.1698V102.099C102.4 102.303 102.404 102.549 102.412 102.838C102.424 103.056 102.457 103.205 102.512 103.283C102.566 103.361 102.648 103.426 102.758 103.476V103.723H100.941C100.891 103.594 100.855 103.473 100.836 103.359C100.816 103.246 100.801 103.117 100.789 102.973C100.559 103.223 100.293 103.435 99.9922 103.611C99.6328 103.818 99.2266 103.922 98.7734 103.922C98.1953 103.922 97.7168 103.758 97.3379 103.43C96.9629 103.098 96.7754 102.629 96.7754 102.023C96.7754 101.238 97.0781 100.67 97.6836 100.318C98.0156 100.127 98.5039 99.9901 99.1484 99.9081L99.7168 99.8377ZM105.594 103.723H103.924V95.0858H105.594V103.723ZM111.635 103.723H110.633V94.992H111.635V103.723ZM117.395 97.7811V96.9725C118.156 96.8983 118.688 96.7752 118.988 96.6034C119.289 96.4276 119.514 96.0155 119.662 95.367H120.494V103.723H119.369V97.7811H117.395ZM123.951 102.445H125.176V103.723H123.951V102.445ZM129.512 95.3319C130.598 95.3319 131.383 95.7791 131.867 96.6737C132.242 97.3651 132.43 98.3123 132.43 99.5155C132.43 100.656 132.26 101.599 131.92 102.346C131.428 103.416 130.623 103.951 129.506 103.951C128.498 103.951 127.748 103.514 127.256 102.639C126.846 101.908 126.641 100.928 126.641 99.6971C126.641 98.744 126.764 97.9256 127.01 97.242C127.471 95.9686 128.305 95.3319 129.512 95.3319ZM129.5 102.99C130.047 102.99 130.482 102.748 130.807 102.264C131.131 101.779 131.293 100.877 131.293 99.5565C131.293 98.6034 131.176 97.8202 130.941 97.2069C130.707 96.5897 130.252 96.2811 129.576 96.2811C128.955 96.2811 128.5 96.5741 128.211 97.16C127.926 97.742 127.783 98.6014 127.783 99.7381C127.783 100.594 127.875 101.281 128.059 101.801C128.34 102.594 128.82 102.99 129.5 102.99Z" fill="white"/>
<defs>
<clipPath id="clip0_1050_14370">
<rect width="80" height="56.4989" fill="white" transform="translate(45 0.46521)"/>
</clipPath>
</defs>
</svg>
